# xmcd CD database file
#
# Track frame offsets:
#	150
#	6470
#	15057
#	22128
#	25149
#	42735
#	53656
#	67878
#	70167
#	82177
#	94015
#	103516
#	111438
#	116898
#	127264
#	133806
#	142122
#	155350
#	163299
#
# Disc length: 2295 seconds
#
# Revision: 0
# Processed by: cddbd v1.5.2PL0 Copyright (c) Steve Scherf et al.
# Submitted via: CDex 1.51
#
DISCID=1408f513
DTITLE=Flying Lotus - You're Dead
DYEAR=2014
DGENRE=Jazz
TTITLE0=Theme
TTITLE1=Tesla
TTITLE2=Cold Dead
TTITLE3=Fkn Dead
TTITLE4=Never Catch Me (feat. Kendrick Lamar)
TTITLE5=Dead Man's Tetris (feat. Captain Murphy and Snoop Dogg)
TTITLE6=Turkey Dog Coma
TTITLE7=Stirring
TTITLE8=Coronus, the Terminator
TTITLE9=Siren Song (feat. Angel Deodorian)
TTITLE10=Turtles
TTITLE11=Ready err Not
TTITLE12=Eyes Above
TTITLE13=Moment of Hesitation
TTITLE14=Descent Into Madness (feat. Thundercat)
TTITLE15=The Boys Who Died in Their Sleep (feat. Captain Murphy)
TTITLE16=Obligatory Cadence
TTITLE17=Your Potential//The Beyond (feat. Niki Randa)
TTITLE18=The Protest
EXTD=YEAR: 2014
EXTT0=
EXTT1=
EXTT2=
EXTT3=
EXTT4=
EXTT5=
EXTT6=
EXTT7=
EXTT8=
EXTT9=
EXTT10=
EXTT11=
EXTT12=
EXTT13=
EXTT14=
EXTT15=
EXTT16=
EXTT17=
EXTT18=
PLAYORDER=
